<?xml version="1.0" standalone="no"?>
<!DOCTYPE svg PUBLIC "-//W3C//DTD SVG 20010904//EN"
 "http://www.w3.org/TR/2001/REC-SVG-20010904/DTD/svg10.dtd">
<svg version="1.0" xmlns="http://www.w3.org/2000/svg"
 width="260.000000pt" height="260.000000pt" viewBox="0 0 260.000000 260.000000"
 preserveAspectRatio="xMidYMid meet">
<metadata>
Created by potrace 1.11, written by Peter Selinger 2001-2013
</metadata>
<g transform="translate(0.000000,260.000000) scale(0.100000,-0.100000)"
fill="#000000" stroke="none">
<path d="M493 2510 c-41 -9 -78 -33 -98 -64 -32 -48 -35 -86 -19 -196 9 -58
17 -114 19 -125 1 -11 6 -42 10 -70 4 -27 9 -59 11 -70 2 -10 6 -37 9 -60 4
-22 9 -53 11 -70 3 -16 7 -43 10 -60 6 -51 26 -179 30 -200 2 -11 7 -38 9 -60
3 -22 7 -51 10 -65 6 -32 12 -73 20 -130 3 -25 10 -70 15 -100 6 -30 13 -75
16 -100 3 -25 7 -56 10 -70 2 -14 9 -57 15 -97 5 -39 12 -82 14 -94 3 -13 7
-41 10 -64 3 -22 10 -65 15 -95 5 -30 12 -75 15 -100 3 -25 15 -101 26 -170
11 -69 22 -143 25 -165 14 -93 21 -112 52 -148 20 -23 70 -46 108 -51 36 -5
98 15 126 41 11 10 111 133 222 273 110 140 206 260 211 267 10 12 51 16 245
28 52 3 127 8 165 10 39 2 115 7 170 10 131 7 176 20 213 59 50 52 61 115 33
188 -7 20 -144 155 -375 373 -24 22 -112 106 -197 186 -85 80 -174 165 -199
188 -38 36 -278 264 -385 366 -18 17 -94 89 -170 160 -75 72 -165 156 -199
188 -87 84 -131 102 -203 87z"/>
</g>
</svg>
