<?xml version="1.0" encoding="utf-8"?>
<svg xmlns="http://www.w3.org/2000/svg" viewBox="128.1 -1.4 256 256" xmlns:bx="https://boxy-svg.com">
  <defs>
    <bx:export>
      <bx:file format="svg"/>
    </bx:export>
    <view id="view-1" viewBox="515.915 -5.495 1274.688 425.124">
      <title>View 1</title>
    </view>
  </defs>
  <g transform="matrix(1, 0, 0, 1, -25.834689, 0.000008)" style="">
    <g transform="matrix(1, 0, 0, 1, 102.465479, 67.93213)">
      <rect x="578.513" y="65.17" width="131.035" height="131.035" style="paint-order: stroke; stroke: rgb(193, 0, 7); fill: rgb(251, 44, 54); stroke-linejoin: round; stroke-width: 124px;"/>
      <path d="M 574.389 60.583 L 713.674 60.583 L 713.674 174.559 L 689.723 174.559 L 689.723 199.868 L 574.389 199.868 L 574.389 60.583 Z" style="paint-order: stroke; fill: rgb(251, 44, 54); stroke-linejoin: round; stroke-width: 30px; stroke: rgb(251, 44, 54);"/>
      <g transform="matrix(1.081065, 0, 0, 1.081065, 359.581487, -180.235568)" style="">
        <path d="M 299.481 231.13 L 280.864 248.817" style="stroke-linecap: round; stroke: rgb(24, 24, 27); fill: rgb(24, 24, 27); stroke-width: 22.8194px;"/>
        <path d="M 216.633 267.434 L 189.637 259.987" style="stroke-linecap: round; stroke: rgb(24, 24, 27); fill: rgb(24, 24, 27); stroke-width: 22.8194px;"/>
        <path d="M 225.011 304.67 L 207.324 323.287" style="stroke-linecap: round; stroke: rgb(24, 24, 27); fill: rgb(24, 24, 27); stroke-width: 22.8194px;"/>
        <path d="M 236.181 213.443 L 243.628 240.439" style="stroke-linecap: round; stroke: rgb(24, 24, 27); fill: rgb(24, 24, 27); stroke-width: 22.8194px;"/>
        <path d="M 253.282 283.166 C 251.885 279.88 254.566 276.324 258.113 276.752 C 258.541 276.808 258.96 276.92 259.36 277.088 L 361.757 318.977 C 365.071 320.336 365.667 324.777 362.837 326.974 C 362.307 327.374 361.711 327.662 361.069 327.811 L 320.584 337.502 C 317.177 338.321 314.515 340.974 313.696 344.381 L 304.015 384.875 C 303.196 388.365 298.904 389.659 296.298 387.211 C 295.804 386.746 295.423 386.187 295.171 385.563 L 253.282 283.166 Z" style="stroke-linecap: round; stroke: rgb(24, 24, 27); fill: rgb(24, 24, 27); stroke-width: 22.8194px;"/>
      </g>
      <rect x="859.475" y="65.17" width="729.19" height="131.035" style="paint-order: stroke; stroke-linejoin: round; stroke-width: 124; fill: rgb(244, 244, 245); stroke: rgb(228, 228, 231);"/>
      <rect x="859.475" y="65.17" width="729.19" height="131.035" style="paint-order: stroke; stroke-linejoin: round; fill: rgb(244, 244, 245); stroke: rgb(244, 244, 245); stroke-width: 30px;"/>
    </g>
    <text style="fill: rgb(51, 51, 51); font-family: &quot;Adwaita Mono&quot;; font-size: 124.4px; font-weight: 700; letter-spacing: -8.8px; text-transform: capitalize; white-space: pre;" x="964.998" y="248.539">Clicky Poll</text>
  </g>
  <rect x="190.582" y="61.545" width="131.035" height="131.035" style="paint-order: stroke; stroke: rgb(193, 0, 7); fill: rgb(251, 44, 54); stroke-linejoin: round; stroke-width: 124px;"/>
  <path d="M 186.458 56.958 L 325.743 56.958 L 325.743 170.934 L 301.792 170.934 L 301.792 196.243 L 186.458 196.243 L 186.458 56.958 Z" style="paint-order: stroke; fill: rgb(251, 44, 54); stroke-linejoin: round; stroke-width: 30px; stroke: rgb(251, 44, 54);"/>
  <g transform="matrix(1.081065, 0, 0, 1.081065, -28.349266, -183.861026)" style="">
    <path d="M 299.481 231.13 L 280.864 248.817" style="stroke-linecap: round; stroke: rgb(24, 24, 27); fill: rgb(24, 24, 27); stroke-width: 22.8194px;"/>
    <path d="M 216.633 267.434 L 189.637 259.987" style="stroke-linecap: round; stroke: rgb(24, 24, 27); fill: rgb(24, 24, 27); stroke-width: 22.8194px;"/>
    <path d="M 225.011 304.67 L 207.324 323.287" style="stroke-linecap: round; stroke: rgb(24, 24, 27); fill: rgb(24, 24, 27); stroke-width: 22.8194px;"/>
    <path d="M 236.181 213.443 L 243.628 240.439" style="stroke-linecap: round; stroke: rgb(24, 24, 27); fill: rgb(24, 24, 27); stroke-width: 22.8194px;"/>
    <path d="M 253.282 283.166 C 251.885 279.88 254.566 276.324 258.113 276.752 C 258.541 276.808 258.96 276.92 259.36 277.088 L 361.757 318.977 C 365.071 320.336 365.667 324.777 362.837 326.974 C 362.307 327.374 361.711 327.662 361.069 327.811 L 320.584 337.502 C 317.177 338.321 314.515 340.974 313.696 344.381 L 304.015 384.875 C 303.196 388.365 298.904 389.659 296.298 387.211 C 295.804 386.746 295.423 386.187 295.171 385.563 L 253.282 283.166 Z" style="stroke-linecap: round; stroke: rgb(24, 24, 27); fill: rgb(24, 24, 27); stroke-width: 22.8194px;"/>
  </g>
</svg>